HIERARCHY
ROOT center
{
	OFFSET 0.0 0.0 0.0
	CHANNELS 6 Xposition Yposition Zposition Zrotation Yrotation Xrotation
	JOINT left_hip
	{
		OFFSET 0.0 0.0 0.0
		CHANNELS 3 Zrotation Yrotation Xrotation
		JOINT left_knee
		{
			OFFSET 5.987838 -8.253332 -1.700898
			CHANNELS 3 Zrotation Yrotation Xrotation
			JOINT left_ankle
			{
				OFFSET 4.404643 -39.006938 0.923045
				CHANNELS 3 Zrotation Yrotation Xrotation
				JOINT left_feet
				{
					OFFSET -2.138908 -42.656324 -4.088237
					CHANNELS 3 Zrotation Yrotation Xrotation
					End Site
					{
						OFFSET 4.612738 -5.938039 11.983048
					}
				}
			}
		}
	}
	JOINT right_hip
	{
		OFFSET 0.0 0.0 0.0
		CHANNELS 3 Zrotation Yrotation Xrotation
		JOINT right_knee
		{
			OFFSET -6.126615 -9.029527 -1.394336
			CHANNELS 3 Zrotation Yrotation Xrotation
			JOINT right_ankle
			{
				OFFSET -4.468279 -38.793408 -0.315706
				CHANNELS 3 Zrotation Yrotation Xrotation
				JOINT right_feet
				{
					OFFSET 2.483054 -41.932583 -3.686092
					CHANNELS 3 Zrotation Yrotation Xrotation
					End Site
					{
						OFFSET -4.118915 -6.549353 12.749295
					}
				}
			}
		}
	}
	JOINT spine1
	{
		OFFSET 0.0 0.0 0.0
		CHANNELS 3 Zrotation Yrotation Xrotation
		JOINT spine2
		{
			OFFSET 0.471197 12.540101 -4.647393
			CHANNELS 3 Zrotation Yrotation Xrotation
			JOINT neck
			{
				OFFSET 0.519542 13.519283 3.855806
				CHANNELS 3 Zrotation Yrotation Xrotation
				JOINT head1
				{
					OFFSET -0.300406 5.545936 0.481803
					CHANNELS 3 Zrotation Yrotation Xrotation
					JOINT head2
					{
						OFFSET -1.338010 20.315588 -3.028696
						CHANNELS 3 Zrotation Yrotation Xrotation
						End Site
						{
							OFFSET 1.023950 8.481358 4.996801
						}
					}
				}
				JOINT left_armpit
				{
					OFFSET -0.300406 5.545936 0.481803
					CHANNELS 3 Zrotation Yrotation Xrotation
					JOINT left_shoulder
					{
						OFFSET 7.284830 11.268209 -1.256958
						CHANNELS 3 Zrotation Yrotation Xrotation
						JOINT left_elbow
						{
							OFFSET 11.910183 4.183028 -2.791085
							CHANNELS 3 Zrotation Yrotation Xrotation
							JOINT left_wrist
							{
								OFFSET 25.825765 -1.597381 -2.089795
								CHANNELS 3 Zrotation Yrotation Xrotation
								JOINT left_hand
								{
									OFFSET 0.000000 0.000000 0.000000
									CHANNELS 3 Zrotation Yrotation Xrotation
									JOINT left_thumb1
									{
										OFFSET 26.380840 1.299822 -0.766570
										CHANNELS 3 Zrotation Yrotation Xrotation
										JOINT left_thumb2
										{
											OFFSET 4.135653 -1.610023 3.021517
											CHANNELS 3 Zrotation Yrotation Xrotation
											JOINT left_thumb3
											{
												OFFSET 1.906808 -1.108284 2.438784
												CHANNELS 3 Zrotation Yrotation Xrotation
												JOINT left_thumb4
												{
													OFFSET 2.343882 -1.237169 1.816691
													CHANNELS 3 Zrotation Yrotation Xrotation
													End Site
													{
														OFFSET 1.848281 -0.879821 1.011710
													}
												}
											}
										}
									}
									JOINT left_index1
									{
										OFFSET 26.380840 1.299822 -0.766570
										CHANNELS 3 Zrotation Yrotation Xrotation
										JOINT left_index2
										{
											OFFSET 9.566398 0.395517 2.399027
											CHANNELS 3 Zrotation Yrotation Xrotation
											JOINT left_index3
											{
												OFFSET 4.273506 0.141195 0.165790
												CHANNELS 3 Zrotation Yrotation Xrotation
												JOINT left_index4
												{
													OFFSET 2.273964 -0.601666 -0.009206
													CHANNELS 3 Zrotation Yrotation Xrotation
													End Site
													{
														OFFSET 2.018012 -0.333813 -0.097178
													}
												}
											}
										}
									}
									JOINT left_middle1
									{
										OFFSET 26.380840 1.299822 -0.766570
										CHANNELS 3 Zrotation Yrotation Xrotation
										JOINT left_middle2
										{
											OFFSET 9.333468 0.568829 0.060724
											CHANNELS 3 Zrotation Yrotation Xrotation
											JOINT left_middle3
											{
												OFFSET 4.531813 0.065064 -0.459358
												CHANNELS 3 Zrotation Yrotation Xrotation
												JOINT left_middle4
												{
													OFFSET 2.346186 -1.022643 -0.004006
													CHANNELS 3 Zrotation Yrotation Xrotation
													End Site
													{
														OFFSET 2.020199 -0.783405 -0.034273
													}
												}
											}
										}
									}
									JOINT left_ring1
									{
										OFFSET 26.380840 1.299822 -0.766570
										CHANNELS 3 Zrotation Yrotation Xrotation
										JOINT left_ring2
										{
											OFFSET 8.887272 0.289915 -1.760966
											CHANNELS 3 Zrotation Yrotation Xrotation
											JOINT left_ring3
											{
												OFFSET 3.834866 -0.074796 -0.906817
												CHANNELS 3 Zrotation Yrotation Xrotation
												JOINT left_ring4
												{
													OFFSET 2.106077 -1.277141 -0.187322
													CHANNELS 3 Zrotation Yrotation Xrotation
													End Site
													{
														OFFSET 1.703886 -1.100124 -0.131877
													}
												}
											}
										}
									}
									JOINT left_little1
									{
										OFFSET 26.380840 1.299822 -0.766570
										CHANNELS 3 Zrotation Yrotation Xrotation
										JOINT left_little2
										{
											OFFSET 7.967690 -0.139064 -3.310820
											CHANNELS 3 Zrotation Yrotation Xrotation
											JOINT left_little3
											{
												OFFSET 2.984125 -0.511166 -1.314715
												CHANNELS 3 Zrotation Yrotation Xrotation
												JOINT left_little4
												{
													OFFSET 1.498210 -0.760961 -0.416789
													CHANNELS 3 Zrotation Yrotation Xrotation
													End Site
													{
														OFFSET 1.277498 -0.851306 -0.150953
													}
												}
											}
										}
									}
								}
							}
						}
					}
				}
				JOINT right_armpit
				{
					OFFSET -0.300406 5.545936 0.481803
					CHANNELS 3 Zrotation Yrotation Xrotation
					JOINT right_shoulder
					{
						OFFSET -8.485327 11.086364 -1.720577
						CHANNELS 3 Zrotation Yrotation Xrotation
						JOINT right_elbow
						{
							OFFSET -11.073890 4.361720 -1.722815
							CHANNELS 3 Zrotation Yrotation Xrotation
							JOINT right_wrist
							{
								OFFSET -26.228460 -1.438557 -2.947848
								CHANNELS 3 Zrotation Yrotation Xrotation
								JOINT right_hand
								{
									OFFSET 0.000000 0.000000 0.000000
									CHANNELS 3 Zrotation Yrotation Xrotation
									JOINT right_thumb1
									{
										OFFSET -27.015626 0.871278 -0.467466
										CHANNELS 3 Zrotation Yrotation Xrotation
										JOINT right_thumb2
										{
											OFFSET -3.746768 -1.838025 3.313989
											CHANNELS 3 Zrotation Yrotation Xrotation
											JOINT right_thumb3
											{
												OFFSET -1.955950 -1.075948 2.641185
												CHANNELS 3 Zrotation Yrotation Xrotation
												JOINT right_thumb4
												{
													OFFSET -2.462736 -1.313807 2.072533
													CHANNELS 3 Zrotation Yrotation Xrotation
													End Site
													{
														OFFSET -2.066040 -1.069520 1.080637
													}
												}
											}
										}
									}
									JOINT right_index1
									{
										OFFSET -27.015626 0.871278 -0.467466
										CHANNELS 3 Zrotation Yrotation Xrotation
										JOINT right_index2
										{
											OFFSET -9.634891 -0.017934 2.531553
											CHANNELS 3 Zrotation Yrotation Xrotation
											JOINT right_index3
											{
												OFFSET -4.481428 -0.059684 0.165721
												CHANNELS 3 Zrotation Yrotation Xrotation
												JOINT right_index4
												{
													OFFSET -2.407545 -0.769893 0.047050
													CHANNELS 3 Zrotation Yrotation Xrotation
													End Site
													{
														OFFSET -2.056585 -0.449725 -0.023434
													}
												}
											}
										}
									}
									JOINT right_middle1
									{
										OFFSET -27.015626 0.871278 -0.467466
										CHANNELS 3 Zrotation Yrotation Xrotation
										JOINT right_middle2
										{
											OFFSET -9.416744 0.013559 -0.043179
											CHANNELS 3 Zrotation Yrotation Xrotation
											JOINT right_middle3
											{
												OFFSET -4.833378 -0.222518 -0.396640
												CHANNELS 3 Zrotation Yrotation Xrotation
												JOINT right_middle4
												{
													OFFSET -2.456590 -1.200851 0.068021
													CHANNELS 3 Zrotation Yrotation Xrotation
													End Site
													{
														OFFSET -1.989035 -0.937074 0.023328
													}
												}
											}
										}
									}
									JOINT right_ring1
									{
										OFFSET -27.015626 0.871278 -0.467466
										CHANNELS 3 Zrotation Yrotation Xrotation
										JOINT right_ring2
										{
											OFFSET -8.902859 -0.390543 -1.876117
											CHANNELS 3 Zrotation Yrotation Xrotation
											JOINT right_ring3
											{
												OFFSET -4.001120 -0.323451 -0.940860
												CHANNELS 3 Zrotation Yrotation Xrotation
												JOINT right_ring4
												{
													OFFSET -2.256458 -1.488811 -0.105795
													CHANNELS 3 Zrotation Yrotation Xrotation
													End Site
													{
														OFFSET -1.692196 -1.166309 -0.088973
													}
												}
											}
										}
									}
									JOINT right_little1
									{
										OFFSET -27.015626 0.871278 -0.467466
										CHANNELS 3 Zrotation Yrotation Xrotation
										JOINT right_little2
										{
											OFFSET -7.962481 -0.934251 -3.549177
											CHANNELS 3 Zrotation Yrotation Xrotation
											JOINT right_little3
											{
												OFFSET -3.000792 -0.735276 -1.248761
												CHANNELS 3 Zrotation Yrotation Xrotation
												JOINT right_little4
												{
													OFFSET -1.605847 -0.940682 -0.391270
													CHANNELS 3 Zrotation Yrotation Xrotation
													End Site
													{
														OFFSET -1.258825 -0.958843 -0.070891
													}
												}
											}
										}
									}
								}
							}
						}
					}
				}
			}
		}
	}
}
MOTION
Frames: 6
Frame Time: 0.050000
35.372736 26.434108 123.209186 0.0 0.0 180.0 -39.498077 -4.265846 -167.637682 -4.582504 -26.483758 77.216066 7.676456 5.379276 -109.223162 -0.000000 -0.000000 14.621719 -39.498077 -4.265846 -167.637682 40.516151 7.748054 -10.391044 -29.365308 -26.414696 -57.363435 0.000000 -0.000000 -0.013041 -39.498077 -4.265846 -167.637682 0.051705 0.922803 -0.721349 0.749070 0.731211 -0.818464 0.237348 0.773547 -0.601087 -5.573247 7.570038 -1.705615 0.237348 0.773547 -0.601087 -13.159780 10.267350 -4.170828 -12.134746 20.893991 -4.313069 -85.858983 3.163843 -28.570355 -32.282576 -12.235334 10.766639 0.000000 0.000000 0.000000 -35.069049 -8.421275 30.815465 -12.317120 -4.194924 7.407642 -2.109543 -0.000000 0.000000 0.000000 0.000000 0.000000 -8.987210 -8.215939 1.492356 -2.839464 -0.000000 0.000000 -0.625601 -0.000000 0.000000 0.000000 0.000000 0.000000 3.685484 -0.784347 0.452902 -1.060188 -0.000000 0.000000 -0.653668 -0.000000 0.000000 0.000000 0.000000 0.000000 7.783102 8.593125 4.858217 -1.898906 -0.000000 0.000000 -1.126108 -0.000000 0.000000 0.000000 0.000000 0.000000 15.336513 11.385964 12.350561 1.194837 -0.000000 -0.000000 -0.375830 -0.000000 0.000000 0.237348 0.773547 -0.601087 -34.169862 3.796233 5.293685 -39.261012 -0.486760 1.636975 -2.327727 0.188792 0.170250 17.224520 4.188449 1.828225 0.000000 0.000000 0.000000 11.884063 37.860323 3.803450 7.769792 14.672442 0.384662 2.197761 -0.000000 -0.000000 0.000000 0.000000 0.000000 -6.210816 19.266235 -3.175762 -2.719933 -0.000000 0.000000 -1.212534 -0.000000 0.000000 0.000000 0.000000 0.000000 -4.745969 -3.657174 3.581693 -2.961511 -0.000000 0.000000 -1.167374 -0.000000 0.000000 0.000000 0.000000 0.000000 -4.232554 -22.094986 8.285838 1.900852 -0.000000 -0.000000 0.621374 -0.000000 -0.000000 0.000000 0.000000 0.000000 -2.721974 -29.693753 10.041856 3.302665 -0.000000 -0.000000 1.327174 -0.000000 -0.000000
35.235508 26.495286 123.288540 0.0 0.0 180.0 -38.948427 -4.026639 -167.804782 -4.307838 -25.985893 75.856780 7.808959 6.711597 -108.013909 -0.000000 -0.000000 12.240168 -38.948427 -4.026639 -167.804782 40.004739 7.763556 -10.570961 -24.692897 -23.704736 -65.253256 -0.000000 -0.000000 0.057315 -38.948427 -4.026639 -167.804782 0.070352 0.910529 -0.717136 0.764527 0.720474 -0.824505 0.256066 0.762385 -0.609780 -4.503307 7.458954 -1.810023 0.256066 0.762385 -0.609780 -13.932966 9.903386 -4.060325 -10.124140 22.235030 -3.757202 -85.479800 3.373987 -28.829870 -34.060788 -11.961993 11.134139 0.000000 0.000000 0.000000 -33.828538 -8.548498 29.628181 -11.987474 -4.374833 7.094733 -2.076727 -0.000000 0.000000 0.000000 0.000000 0.000000 -9.004316 -6.627779 1.229329 -3.026300 -0.000000 0.000000 -0.777853 -0.000000 0.000000 0.000000 0.000000 0.000000 3.832380 -0.502337 0.557115 -0.728132 -0.000000 0.000000 -0.502371 -0.000000 0.000000 0.000000 0.000000 0.000000 7.835538 8.147762 4.619179 -1.869998 -0.000000 0.000000 -1.092323 -0.000000 0.000000 0.000000 0.000000 0.000000 15.168647 10.594459 11.783019 1.301689 -0.000000 -0.000000 -0.258590 -0.000000 0.000000 0.256066 0.762385 -0.609780 -34.018171 3.962781 5.159162 -39.626650 -0.308242 1.478812 -2.524279 0.295201 0.157559 17.311323 3.774577 1.540106 0.000000 0.000000 0.000000 9.991293 34.082257 1.807329 5.998830 12.143795 -0.331535 1.529695 -0.000000 -0.000000 0.000000 0.000000 0.000000 -6.332557 16.745978 -2.721787 -2.688353 -0.000000 0.000000 -1.254476 -0.000000 0.000000 0.000000 0.000000 0.000000 -3.136180 -1.217361 1.244528 -0.864050 -0.000000 0.000000 -1.255942 -0.000000 0.000000 0.000000 0.000000 0.000000 -3.793093 -21.589096 7.678474 2.299956 -0.000000 -0.000000 0.616678 -0.000000 -0.000000 0.000000 0.000000 0.000000 -4.841778 -33.043830 12.498714 3.754873 -0.000000 -0.000000 1.622532 -0.000000 -0.000000
35.349577 26.542451 123.618354 0.0 0.0 180.0 -38.608762 -4.018638 -168.093389 -4.953356 -26.884864 77.283575 7.797938 6.941948 -107.938029 -0.000000 -0.000000 11.691409 -38.608762 -4.018638 -168.093389 39.859048 6.104550 -8.400714 -29.365308 -26.414696 -57.363435 -0.000000 -0.000000 0.047165 -38.608762 -4.018638 -168.093389 0.042072 0.941424 -0.738055 0.745830 0.747749 -0.829316 0.238352 0.789969 -0.617209 -3.840640 7.223032 -2.419915 0.238352 0.789969 -0.617209 -13.088917 10.120900 -3.899197 -10.074385 22.379462 -3.741094 -85.130902 3.556372 -28.908558 -35.853049 -11.786182 11.606455 0.000000 0.000000 0.000000 -33.705672 -8.563787 29.567184 -11.456603 -3.964093 6.807903 -2.033100 -0.000000 0.000000 0.000000 0.000000 0.000000 -8.340629 -6.769077 1.253802 -2.438305 -0.000000 0.000000 -0.462972 -0.000000 0.000000 0.000000 0.000000 0.000000 4.303674 -0.345009 0.596923 -0.646042 -0.000000 0.000000 -0.438060 -0.000000 0.000000 0.000000 0.000000 0.000000 8.400797 8.143899 4.898936 -1.656061 -0.000000 0.000000 -0.982303 -0.000000 0.000000 0.000000 0.000000 0.000000 14.999269 10.959193 11.944484 1.536392 -0.000000 -0.000000 -0.116924 -0.000000 0.000000 0.238352 0.789969 -0.617209 -34.596861 4.281518 4.974252 -38.208705 0.783364 0.474918 -3.405878 -5.182330 0.456573 17.733588 8.656870 3.195668 0.000000 0.000000 0.000000 10.397450 36.468841 2.346834 6.273769 12.321694 -0.146438 1.465859 -0.000000 -0.000000 0.000000 0.000000 0.000000 -6.899609 16.098919 -2.800229 -3.044453 -0.000000 0.000000 -1.466935 -0.000000 0.000000 0.000000 0.000000 0.000000 -5.010856 -4.219436 3.274533 -2.817195 -0.000000 0.000000 -1.132433 -0.000000 0.000000 0.000000 0.000000 0.000000 -3.250042 -17.197784 6.100389 1.258330 -0.000000 -0.000000 0.315691 -0.000000 -0.000000 0.000000 0.000000 0.000000 -4.655438 -32.012010 12.167227 3.472051 -0.000000 -0.000000 1.472863 -0.000000 -0.000000
35.451768 26.804957 123.367901 0.0 0.0 180.0 -38.229359 -3.919025 -168.174873 -4.711352 -27.278771 77.059507 7.981438 4.279615 -109.977719 -0.000000 -0.000000 15.469760 -38.229359 -3.919025 -168.174873 39.534509 7.038281 -9.736906 -57.679010 -33.788972 -17.713853 -0.000000 -0.000000 0.058054 -38.229359 -3.919025 -168.174873 0.063590 0.961206 -0.709401 0.754583 0.770582 -0.801397 0.245010 0.815358 -0.583395 -4.424478 6.477690 -2.047099 0.245010 0.815358 -0.583395 -13.085963 9.994340 -4.105923 -10.166794 19.952976 -3.385670 -85.246662 3.702129 -30.517312 -39.280208 -14.432894 14.914443 0.000000 0.000000 0.000000 -33.549262 -8.333539 29.425528 -11.394602 -3.881205 6.783709 -1.934011 -0.000000 0.000000 0.000000 0.000000 0.000000 -7.112922 -6.974924 1.145278 -1.607694 -0.000000 0.000000 -0.206817 -0.000000 0.000000 0.000000 0.000000 0.000000 5.646842 0.739400 1.059443 0.130230 -0.000000 -0.000000 -0.196363 -0.000000 0.000000 0.000000 0.000000 0.000000 10.641805 9.345978 6.239723 -0.637039 -0.000000 0.000000 -0.698071 -0.000000 0.000000 0.000000 0.000000 0.000000 16.451795 10.379059 12.475711 1.969812 -0.000000 -0.000000 -0.084248 -0.000000 0.000000 0.245010 0.815358 -0.583395 -33.782494 5.292938 5.184613 -38.434153 2.644069 -0.339464 -4.417702 -8.843580 1.015422 15.750863 4.475334 2.070543 0.000000 0.000000 0.000000 14.862286 42.317193 7.622000 8.212304 14.458250 0.906985 1.990272 -0.000000 -0.000000 0.000000 0.000000 0.000000 -3.877470 26.906565 -3.819156 -1.326661 -0.000000 0.000000 -1.195849 -0.000000 0.000000 0.000000 0.000000 0.000000 -6.758097 -7.761818 4.593260 -3.063559 -0.000000 0.000000 -1.286590 -0.000000 0.000000 0.000000 0.000000 0.000000 -10.776746 -27.459053 13.300413 2.295930 -0.000000 -0.000000 0.332440 -0.000000 -0.000000 0.000000 0.000000 0.000000 -17.965809 -42.071801 23.785537 6.226627 -0.000000 -0.000000 2.405056 -0.000000 -0.000000
35.615743 26.824120 123.438784 0.0 0.0 180.0 -37.857631 -3.538859 -168.734123 -4.609917 -27.829415 77.383641 7.908449 4.921469 -109.547113 -0.000000 -0.000000 13.232950 -37.857631 -3.538859 -168.734123 39.417638 5.588176 -7.803629 -29.365308 -26.414696 -57.363435 -0.000000 -0.000000 0.072265 -37.857631 -3.538859 -168.734123 0.071284 0.961395 -0.720687 0.772708 0.767831 -0.793735 0.275563 0.810065 -0.578195 -3.572252 5.894734 -1.597458 0.275563 0.810065 -0.578195 -12.620948 9.139345 -3.824566 -10.003119 18.758641 -3.200997 -86.444972 2.999732 -30.727327 -35.438461 -15.496793 13.838406 0.000000 0.000000 0.000000 -34.443836 -9.144602 30.000366 -11.940246 -4.292560 7.018818 -2.076075 -0.000000 0.000000 0.000000 0.000000 0.000000 -7.377645 -6.745465 1.069110 -2.195148 -0.000000 0.000000 -0.481816 -0.000000 0.000000 0.000000 0.000000 0.000000 5.740893 0.565744 0.980839 0.230082 -0.000000 -0.000000 -0.125450 -0.000000 0.000000 0.000000 0.000000 0.000000 10.062443 9.177340 6.003400 -0.876934 -0.000000 0.000000 -0.766753 -0.000000 0.000000 0.000000 0.000000 0.000000 15.810076 10.029022 11.936972 1.986989 -0.000000 -0.000000 0.001968 -0.000000 -0.000000 0.275563 0.810065 -0.578195 -33.477559 6.028770 5.248846 -37.609676 3.650012 -0.810271 -6.752304 -13.175663 1.950532 17.733588 8.656870 3.195668 0.000000 0.000000 0.000000 19.016857 45.247673 12.533282 9.508257 14.936556 1.942890 1.998703 -0.000000 -0.000000 0.000000 0.000000 0.000000 -3.662061 27.961500 -4.212550 -1.107856 -0.000000 0.000000 -1.530805 -0.000000 0.000000 0.000000 0.000000 0.000000 -9.303288 -9.343159 5.123013 -3.782378 -0.000000 0.000000 -1.639504 -0.000000 0.000000 0.000000 0.000000 0.000000 -13.034829 -26.423773 13.981327 0.999913 -0.000000 -0.000000 -0.154116 -0.000000 0.000000 0.000000 0.000000 0.000000 -18.756368 -39.662702 24.363867 4.580442 -0.000000 -0.000000 1.816821 -0.000000 -0.000000
35.948807 26.341112 122.912274 0.0 0.0 180.0 -37.196592 -3.081343 -168.211407 -2.929055 -27.777413 74.358853 7.960820 7.690328 -108.093209 -0.000000 -0.000000 14.454565 -37.196592 -3.081343 -168.211407 39.618393 4.336344 -6.041604 -17.824345 -14.987075 -70.457940 -0.000000 -0.000000 0.059319 -37.196592 -3.081343 -168.211407 0.057327 0.962183 -0.743004 0.782107 0.762165 -0.799665 0.301343 0.801493 -0.584556 -3.550858 5.504925 -3.241905 0.301343 0.801493 -0.584556 -9.968865 9.457921 -2.978226 -10.302103 20.625882 -3.573984 -85.853349 3.403296 -30.999854 -32.285962 -13.414368 11.439945 0.000000 0.000000 0.000000 -34.493963 -8.496619 30.140622 -11.938501 -3.929196 7.131854 -2.068831 -0.000000 0.000000 0.000000 0.000000 0.000000 -6.974719 -5.918298 0.936987 -1.907337 -0.000000 0.000000 -0.363752 -0.000000 0.000000 0.000000 0.000000 0.000000 3.889101 -0.022055 0.770802 -0.551904 -0.000000 0.000000 -0.369745 -0.000000 0.000000 0.000000 0.000000 0.000000 8.295810 8.243131 5.098338 -1.404722 -0.000000 0.000000 -0.922478 -0.000000 0.000000 0.000000 0.000000 0.000000 15.878562 10.516120 12.182190 1.715297 -0.000000 -0.000000 -0.141862 -0.000000 0.000000 0.301343 0.801493 -0.584556 -33.057954 6.360831 5.566764 -36.673746 4.826517 -1.179815 -6.301244 -11.732793 1.821948 12.251645 2.010876 2.014787 0.000000 0.000000 0.000000 26.945830 45.583130 21.400882 11.269211 14.531886 3.580197 2.357826 -0.000000 -0.000000 0.000000 0.000000 0.000000 1.618895 29.240019 -1.236936 -0.182786 -0.000000 0.000000 -1.296112 -0.000000 0.000000 0.000000 0.000000 0.000000 -6.814627 5.173084 -1.374958 -4.239575 -0.000000 0.000000 -1.851882 -0.000000 0.000000 0.000000 0.000000 0.000000 -9.741687 -17.839143 8.951298 -0.553022 -0.000000 0.000000 -0.438914 -0.000000 0.000000 0.000000 0.000000 0.000000 -17.857841 -35.932555 22.507124 2.568976 -0.000000 -0.000000 1.305134 -0.000000 -0.000000
